<?xml version="1.0" encoding="UTF-8"?>
<!-- Created with Inkscape (http://www.inkscape.org/) -->
<svg width="48" height="48" fill="#fff" version="1.1" viewBox="0 0 48 48" xmlns="http://www.w3.org/2000/svg">
 <path d="m11.132 6.8044c-4.067 0-7.3409 3.7765-7.3409 8.4676v17.456c0 4.691 3.2739 8.4676 7.3409 8.4676h18.144c3.268 0 6.0203-2.4419 6.9771-5.8339h6.5595c2.637 0 4.7609-2.4966 4.7609-5.5961v-11.533c0-3.0995-2.124-5.5941-4.7609-5.5941h-6.5595c-0.95625-3.393-3.7084-5.8339-6.9771-5.8339zm4.3806 6.9192a6.59 6.59 0 0 1 4.6038 1.7551l4e-3 -4e-3 0.17365 0.17365a6.59 6.59 0 0 1 9.1291 0.16745 6.59 6.59 0 0 1 0.17365 9.1394l4e-3 4e-3 -0.17779 0.17572-9.1415 9.1415-0.16332-0.16124-9.1415-9.1436-0.01655-0.01446-0.15918-0.16125 0.01039-0.01241a6.59 6.59 0 0 1 0.16545-9.1312 6.59 6.59 0 0 1 4.5356-1.9288zm21.105 3.8389h3.1319c1.4566 0 2.6296 1.173 2.6296 2.6296v7.6138c0 1.4566-1.173 2.6296-2.6296 2.6296h-3.1319z" stroke-linecap="round" stroke-linejoin="round" stroke-width="2.9566"/>
</svg>
